<svg height="512pt" viewBox="-59 0 512 512.00025" width="512pt" xmlns="http://www.w3.org/2000/svg"><path d="m393.886719 93.085938c-2.527344-8.730469.070312-4.628907-105.410157-88.566407-8.210937-6.53125-2.53125-3.933593-268.476562-4.347656-11.046875 0-20 8.953125-20 20v471.828125c0 11.046875 8.953125 20 20 20h354.675781c11.046875 0 20-8.953125 20-20-.347656-417.632812.738281-393.734375-.789062-398.914062zm-97.863281-31.445313 18.96875 15.089844 2.410156 1.914062h-21.378906zm-256.019532 410.359375v-431.824219h216.019532v58.472657c0 11.046874 8.953124 20 20 20h78.652343v353.351562zm0 0"/><path d="m297.359375 235.988281h-200.011719c-11.046875 0-20 8.953125-20 20s8.953125 20 20 20h200.011719c11.046875 0 20-8.953125 20-20s-8.953125-20-20-20zm0 0"/><path d="m297.359375 355.992188h-200.011719c-11.046875 0-20 8.957031-20 20 0 11.046874 8.953125 20.003906 20 20.003906h200.011719c11.046875 0 20-8.957032 20-20.003906 0-11.042969-8.953125-20-20-20zm0 0"/><path d="m97.347656 197.320312h78.671875c11.046875 0 20-8.957031 20-20.003906v-78.667968c0-11.046876-8.953125-20-20-20h-78.671875c-11.046875 0-20 8.953124-20 20v78.667968c0 11.046875 8.953125 20.003906 20 20.003906zm20.003906-78.671874h38.667969v38.667968h-38.667969zm0 0"/></svg>